<?xml version="1.0" encoding="UTF-8"?>
<svg width="1440px" height="900px" viewBox="0 0 1440 900" version="1.1" xmlns="http://www.w3.org/2000/svg" xmlns:xlink="http://www.w3.org/1999/xlink">
    <!-- Generator: Sketch 41.2 (35397) - http://www.bohemiancoding.com/sketch -->
    <title>macbook_content</title>
    <desc>Created with Sketch.</desc>
    <defs></defs>
    <g id="Page-1" stroke="none" stroke-width="1" fill="none" fill-rule="evenodd" opacity="0.66">
        <g id="macbook" fill="#FFFFFF">
            <g id="macbook_content">
                <path d="M1102.9406,552.1998 L973.708452,552.1998 C970.174502,552.1998 968.948033,549.039411 970.984435,546.138531 L1008.33554,492.51109 C1010.36864,489.615169 1014.07118,489.10111 1016.56214,491.613553 L1024.10939,499.129395 C1026.60034,501.643491 1030.4781,501.415387 1032.72442,498.6798 L1050.84707,476.600051 C1053.09174,473.869422 1056.5728,474.004962 1058.58275,476.919066 L1105.71255,546.112084 C1107.72085,549.02784 1106.4729,552.1998 1102.9406,552.1998 Z M1094.42772,485.863364 C1086.17798,485.863364 1079.49521,479.177289 1079.49521,470.932508 C1079.49521,462.682769 1086.17963,456 1094.42772,456 C1102.6758,456 1109.36022,462.686074 1109.36022,470.932508 C1109.36353,479.177289 1102.6758,485.863364 1094.42772,485.863364 Z" id="image"></path>
                <path d="M782.9406,264.1998 L653.708452,264.1998 C650.174502,264.1998 648.948033,261.039411 650.984435,258.138531 L688.33554,204.51109 C690.368636,201.615169 694.071184,201.10111 696.562139,203.613553 L704.109387,211.129395 C706.600342,213.643491 710.4781,213.415387 712.724422,210.6798 L730.847072,188.600051 C733.091742,185.869422 736.572798,186.004962 738.582753,188.919066 L785.712552,258.112084 C787.720854,261.02784 786.472897,264.1998 782.9406,264.1998 Z M774.427715,197.863364 C766.177975,197.863364 759.495207,191.177289 759.495207,182.932508 C759.495207,174.682769 766.179628,168 774.427715,168 C782.675802,168 789.360223,174.686074 789.360223,182.932508 C789.363529,191.177289 782.675802,197.863364 774.427715,197.863364 Z" id="image"></path>
                <rect id="Rectangle-24-Copy-4" x="294" y="458" width="532" height="20" rx="10"></rect>
                <rect id="Rectangle-24-Copy-10" x="614" y="685" width="212" height="20" rx="10"></rect>
                <rect id="Rectangle-24-Copy-17" x="934" y="684" width="212" height="20" rx="10"></rect>
                <rect id="Rectangle-24-Copy-6" x="433" y="578" width="127" height="20" rx="10"></rect>
                <g id="macbook_secondary" opacity="0.5" transform="translate(294.000000, 281.000000)">
                    <rect id="Rectangle-24" x="141" y="0" width="571" height="14" rx="7"></rect>
                    <rect id="Rectangle-24-Copy-3" x="0" y="216" width="532" height="14" rx="7"></rect>
                    <rect id="Rectangle-24-Copy-9" x="320" y="444" width="212" height="14" rx="7"></rect>
                    <rect id="Rectangle-24-Copy-14" x="640" y="443" width="212" height="14" rx="7"></rect>
                    <rect id="Rectangle-24-Copy-12" x="320" y="468" width="212" height="14" rx="7"></rect>
                    <rect id="Rectangle-24-Copy-15" x="640" y="467" width="212" height="14" rx="7"></rect>
                    <rect id="Rectangle-24-Copy-13" x="320" y="492" width="137" height="14" rx="7"></rect>
                    <rect id="Rectangle-24-Copy-16" x="640" y="491" width="137" height="14" rx="7"></rect>
                    <rect id="Rectangle-24-Copy-7" x="0" y="240" width="532" height="14" rx="7"></rect>
                    <rect id="Rectangle-24-Copy-8" x="-2.27373675e-13" y="264" width="340" height="14" rx="7"></rect>
                    <rect id="Rectangle-24-Copy" x="241" y="24" width="370" height="14" rx="7"></rect>
                </g>
                <path d="M427.288501,864.111328 L460.497891,830.901938 C465.188541,826.211289 465.184441,818.616988 460.497891,813.930438 L409.58714,763.019687 C404.896491,758.329038 397.30219,758.333137 392.61564,763.019687 L341.704889,813.930438 C337.01424,818.621088 337.018339,826.215388 341.704889,830.901938 L374.914279,864.111328 L427.288501,864.111328 Z" id="map-copy"></path>
                <rect id="Rectangle-10-Copy-4" x="818" y="24" width="139" height="48" rx="24"></rect>
                <rect id="Rectangle-10-Copy-3" x="969" y="24" width="130" height="48" rx="24"></rect>
                <rect id="Rectangle-9-Copy" x="727" y="24" width="79" height="48" rx="24"></rect>
                <rect id="background" fill-opacity="0.01" x="0" y="0" width="1440" height="900" rx="1"></rect>
            </g>
        </g>
    </g>
</svg>