<?xml version="1.0" encoding="UTF-8"?>
<svg width="768px" height="1024px" viewBox="0 0 768 1024" version="1.1" xmlns="http://www.w3.org/2000/svg" xmlns:xlink="http://www.w3.org/1999/xlink">
    <!-- Generator: Sketch 41.2 (35397) - http://www.bohemiancoding.com/sketch -->
    <title>ipad_content</title>
    <desc>Created with Sketch.</desc>
    <defs></defs>
    <g id="Page-1" stroke="none" stroke-width="1" fill="none" fill-rule="evenodd" opacity="0.66">
        <g id="ipad" fill="#FFFFFF">
            <g id="ipad_content" transform="translate(384.000000, 512.000000) rotate(-270.000000) translate(-384.000000, -512.000000) translate(-128.000000, 128.000000)">
                <path d="M934.9406,240.1998 L805.708452,240.1998 C802.174502,240.1998 800.948033,237.039411 802.984435,234.138531 L840.33554,180.51109 C842.368636,177.615169 846.071184,177.10111 848.562139,179.613553 L856.109387,187.129395 C858.600342,189.643491 862.4781,189.415387 864.724422,186.6798 L882.847072,164.600051 C885.091742,161.869422 888.572798,162.004962 890.582753,164.919066 L937.712552,234.112084 C939.720854,237.02784 938.472897,240.1998 934.9406,240.1998 Z M926.427715,173.863364 C918.177975,173.863364 911.495207,167.177289 911.495207,158.932508 C911.495207,150.682769 918.179628,144 926.427715,144 C934.675802,144 941.360223,150.686074 941.360223,158.932508 C941.363529,167.177289 934.675802,173.863364 926.427715,173.863364 Z" id="image"></path>
                <path d="M934.9406,456.1998 L805.708452,456.1998 C802.174502,456.1998 800.948033,453.039411 802.984435,450.138531 L840.33554,396.51109 C842.368636,393.615169 846.071184,393.10111 848.562139,395.613553 L856.109387,403.129395 C858.600342,405.643491 862.4781,405.415387 864.724422,402.6798 L882.847072,380.600051 C885.091742,377.869422 888.572798,378.004962 890.582753,380.919066 L937.712552,450.112084 C939.720854,453.02784 938.472897,456.1998 934.9406,456.1998 Z M926.427715,389.863364 C918.177975,389.863364 911.495207,383.177289 911.495207,374.932508 C911.495207,366.682769 918.179628,360 926.427715,360 C934.675802,360 941.360223,366.686074 941.360223,374.932508 C941.363529,383.177289 934.675802,389.863364 926.427715,389.863364 Z" id="image-copy"></path>
                <path d="M934.9406,672.1998 L805.708452,672.1998 C802.174502,672.1998 800.948033,669.039411 802.984435,666.138531 L840.33554,612.51109 C842.368636,609.615169 846.071184,609.10111 848.562139,611.613553 L856.109387,619.129395 C858.600342,621.643491 862.4781,621.415387 864.724422,618.6798 L882.847072,596.600051 C885.091742,593.869422 888.572798,594.004962 890.582753,596.919066 L937.712552,666.112084 C939.720854,669.02784 938.472897,672.1998 934.9406,672.1998 Z M926.427715,605.863364 C918.177975,605.863364 911.495207,599.177289 911.495207,590.932508 C911.495207,582.682769 918.179628,576 926.427715,576 C934.675802,576 941.360223,582.686074 941.360223,590.932508 C941.363529,599.177289 934.675802,605.863364 926.427715,605.863364 Z" id="image-copy-2"></path>
                <rect id="Rectangle-24-Copy-2" x="100" y="474" width="585" height="14" rx="7"></rect>
                <g id="secondary" opacity="0.5" transform="translate(100.000000, 628.000000)">
                    <rect id="Rectangle-24-Copy" x="0" y="0" width="584" height="14" rx="7"></rect>
                    <rect id="Rectangle-24-Copy-3" x="7.10542736e-14" y="24" width="400" height="14" rx="7"></rect>
                </g>
                <rect id="Rectangle-24-Copy-19" x="284" y="698" width="136" height="20" rx="10"></rect>
                <rect id="Rectangle-24-Copy-20" x="100" y="590" width="584" height="20" rx="10"></rect>
                <circle id="Oval-1-Copy" cx="944" cy="60" r="36"></circle>
                <rect id="background" fill-opacity="0.01" x="-2.76207089e-16" y="1.13686838e-13" width="1024" height="768"></rect>
            </g>
        </g>
    </g>
</svg>