<?xml version="1.0" encoding="UTF-8"?>
<svg width="1440px" height="900px" viewBox="0 0 1440 900" version="1.1" xmlns="http://www.w3.org/2000/svg" xmlns:xlink="http://www.w3.org/1999/xlink">
    <!-- Generator: Sketch 41.2 (35397) - http://www.bohemiancoding.com/sketch -->
    <title>macbook_base</title>
    <desc>Created with Sketch.</desc>
    <defs></defs>
    <g id="Page-1" stroke="none" stroke-width="1" fill="none" fill-rule="evenodd" opacity="0.15">
        <g id="macbook" fill="#FFFFFF">
            <g id="macbook_base">
                <rect id="Rectangle-10" x="818" y="24" width="139" height="48" rx="24"></rect>
                <rect id="Rectangle-10-Copy" x="969" y="24" width="130" height="48" rx="24"></rect>
                <rect id="Rectangle-9" x="727" y="24" width="79" height="48" rx="24"></rect>
                <rect id="Rectangle-10-Copy-2" x="1111" y="24" width="83" height="48" rx="24"></rect>
                <rect id="Rectangle-3" x="246" y="96" width="948" height="312" rx="12"></rect>
                <rect id="Rectangle-4" x="246" y="420" width="628" height="204" rx="12"></rect>
                <rect id="Rectangle-5" x="886" y="420" width="308" height="204" rx="12"></rect>
                <rect id="Rectangle-7" x="566" y="636.888672" width="308" height="227.111328" rx="12"></rect>
                <rect id="Rectangle-8" x="885.5" y="636.888672" width="308" height="227.111328" rx="12"></rect>
                <path d="M501.664764,637 L485.954673,652.710092 C481.268122,657.396642 473.673822,657.400741 468.983172,652.710092 L453.27308,637 L501.664764,637 Z M510.678781,864.111328 L485.954673,839.38722 C481.264023,834.69657 473.669723,834.700669 468.983172,839.38722 L444.259064,864.111328 L510.678781,864.111328 Z M427.288501,864.111328 L460.497891,830.901938 C465.188541,826.211289 465.184441,818.616988 460.497891,813.930438 L409.58714,763.019687 C404.896491,758.329038 397.30219,758.333137 392.61564,763.019687 L341.704889,813.930438 C337.01424,818.621088 337.018339,826.215388 341.704889,830.901938 L374.914279,864.111328 L427.288501,864.111328 Z M436.302518,637 L460.498697,661.19618 C465.184802,665.882285 465.188541,673.476224 460.497891,678.166874 L409.58714,729.077624 C404.90059,733.764175 397.29873,733.760714 392.616446,729.078431 L300.538016,637 L436.302518,637 Z M554,759.507079 C550.874563,759.464748 547.735266,760.635126 545.350705,763.019687 L494.439954,813.930438 C489.749304,818.621088 489.753042,826.215027 494.439147,830.901132 L527.649344,864.111328 L541.996964,864.111328 C548.621543,864.111328 554,858.74311 554,852.121078 L554,759.507079 Z M357.943716,864.111328 L333.218801,839.386413 C328.536518,834.70413 320.934658,834.700669 316.248107,839.38722 L291.523999,864.111328 L357.943716,864.111328 Z M554,737.399829 L485.953866,805.445963 C481.267761,810.132068 473.673822,810.135806 468.983172,805.445156 L418.072422,754.534406 C413.385871,749.847855 413.389332,742.245995 418.071615,737.563712 L518.635327,637 L541.996964,637 C548.626058,637 554,642.376154 554,648.99025 L554,737.399829 Z M274.553436,864.111328 L384.131165,754.533599 C388.813448,749.851316 388.816909,742.249456 384.130358,737.562905 L333.219608,686.652155 C328.528958,681.961505 320.935019,681.965243 316.248914,686.651348 L246,756.900262 L246,852.121078 C246,858.735174 251.373942,864.111328 258.003036,864.111328 L274.553436,864.111328 Z M283.567453,637 L307.762826,661.195373 C312.449377,665.881924 312.445916,673.483784 307.763633,678.166067 L246,739.9297 L246,648.99025 C246,642.368218 251.378457,637 258.003036,637 L283.567453,637 Z" id="map"></path>
                <rect id="Rectangle-2" x="246" y="24" width="148" height="48" rx="24"></rect>
                <rect id="background" fill-opacity="0.01" x="0" y="0" width="1440" height="900" rx="1"></rect>
            </g>
        </g>
    </g>
</svg>